<svg width="113" height="115" viewBox="0 0 113 115" fill="none" xmlns="http://www.w3.org/2000/svg">
<g clip-path="url(#clip0_416_267)">
<path d="M84.5 29.13C82.44 26.88 83.73 20.96 87.02 17.59C92.95 11.52 102.57 16.68 107.73 10.57C111.08 6.58999 109.91 0.979992 110.36 0.999992C110.94 1.02999 113.34 10.36 108.93 18.39C103.12 28.97 87.94 32.89 84.5 29.13Z" fill="#6266FA" stroke="#6266FA" stroke-width="2" stroke-linejoin="round"/>
<path d="M2.87001 103.92C0.0400072 101.6 -1.67999 98.6 13.99 81.8C35.7 58.52 82.52 26.59 85.05 29.98C87.17 32.83 57.31 66.85 31.48 91.29C10.96 110.71 5.45001 106.03 2.87001 103.92Z" fill="#6266FA" stroke="#6266FA" stroke-width="2" stroke-linejoin="round"/>
<path d="M79.34 63.48L70.41 60.61C72.7 65.04 74.21 68.63 72.55 70.69C66.12 78.7 25.6 46.39 9.73 58.81C7.48 60.57 5.78 63.2 4.67 66.16L16.54 69.98C16.58 69.68 16.66 69.39 16.83 69.13C17.7 67.76 20.41 67.03 36.46 70.98C61.09 77.05 69.92 82.5 75.5 78.18C79.69 74.94 79.5 68.15 79.38 64.26C79.38 63.99 79.35 63.74 79.34 63.48Z" fill="white"/>
<path d="M12.72 74.7C8.2 68.28 4.85 58.25 11.62 52.95C27.49 40.53 68.01 72.84 74.44 64.83C79.02 59.13 59.38 41.68 65.99 27.3C69.56 19.52 84.31 22.5 84.61 22.89C84.89 23.25 71.85 19.85 70.01 26.81C67.37 36.81 80.82 42.56 81.27 58.4C81.38 62.29 81.58 69.08 77.39 72.32C71.81 76.64 62.98 71.18 38.35 65.12C22.29 61.17 19.58 61.89 18.72 63.27C15.72 68 35.32 89.42 41.01 98.46C45.58 105.73 36.05 112.06 24.31 113.62C22.21 113.9 36.45 109.42 31.45 101.4C27.38 94.88 17.14 80.96 12.73 74.7H12.72Z" fill="#6266FA" stroke="#6266FA" stroke-width="2" stroke-linejoin="round"/>
<path d="M85.7 36.98L68.81 61.97L68.1 54.87L78.82 42.08L85.7 36.98Z" fill="white"/>
<path d="M26.85 96.79L36.3 88.12L37.63 89.7L27.52 101.98L25.14 98.29L26.85 96.79Z" fill="white"/>
</g>
<defs>
<clipPath id="clip0_416_267">
<rect width="112.53" height="114.62" fill="white"/>
</clipPath>
</defs>
</svg>
