<svg width="1920" height="325" viewBox="0 0 1920 325" fill="none" xmlns="http://www.w3.org/2000/svg">
<path d="M242.5 89.5L142.5 0L-43 72.5L-37.5 293.5L684 185L524.5 137L442 160L242.5 89.5Z" fill="#DCDFFF"/>
<path d="M1128.5 210.5L1069 204.5L1215 184.5L1464 109.5L1534 115.5L1778 27L1855 130L1949.5 205V242.5H1819.5L1229.5 210.5H1128.5Z" fill="#DCDFFF"/>
<path d="M239 153L-84.5 246.5L-116.5 325L1963 312.5L1927 225L1678 195.5L1570 179.5L1342.5 202.5L1127 218L924.5 210.5L628.5 195.5L239 153Z" fill="#6266FA"/>
</svg>
