<svg width="15" height="8" viewBox="0 0 15 8" fill="none" xmlns="http://www.w3.org/2000/svg">
<g clip-path="url(#clip0_77_124)">
<path d="M14.7193 4.88352L14.0838 4.66949L7.76346 6.75497C7.594 6.81239 7.40865 6.81239 7.23919 6.75497L2.65049 5.24111V4.66949L1.48279 4.32234V4.85742L1.17034 4.75301V3.48972L7.24184 5.49429C7.4113 5.55171 7.59665 5.55171 7.76611 5.49429L14.722 3.19739C15.098 3.06949 15.098 2.54747 14.722 2.41957L7.63636 0.0234866C7.54898 -0.00522469 7.45366 -0.00522469 7.36628 0.0234866L0.280671 2.41696C0.0926743 2.4796 0 2.64404 0 2.80587V5.27243C0 5.43425 0.0926743 5.59869 0.280671 5.66133L1.48014 6.05807V7.10734C1.48014 7.23001 1.55693 7.33703 1.67343 7.37879L2.30627 7.60326C2.47308 7.66329 2.64784 7.54062 2.64784 7.36574V6.44437L7.23654 7.95823C7.406 8.01566 7.59135 8.01566 7.76081 7.95823L14.7167 5.66133C15.0927 5.53344 15.0927 5.01141 14.7167 4.88352H14.7193Z" fill="#2C31ED"/>
</g>
<defs>
<clipPath id="clip0_77_124">
<rect width="15" height="8" fill="white"/>
</clipPath>
</defs>
</svg>
