<svg width="15" height="9" viewBox="0 0 15 9" fill="none" xmlns="http://www.w3.org/2000/svg">
<g clip-path="url(#clip0_69_118)">
<path d="M14.7193 2.53303L7.63636 0.0245215C7.54898 -0.00556967 7.45366 -0.00556967 7.36628 0.0245215L0.280667 2.53303C-0.0953257 2.66707 -0.0953257 3.21419 0.280667 3.34823L0.857896 3.5534V7.80446C0.857896 7.98774 0.971753 8.15188 1.13857 8.21206C1.40865 8.3078 1.68932 8.0999 1.68932 7.80446V3.84884L3.31509 4.42331V7.27376C3.31509 7.40507 3.37334 7.53364 3.47396 7.61571C5.83583 9.49777 9.20653 9.45948 11.5287 7.52817C11.6267 7.4461 11.6823 7.323 11.6823 7.19169V4.42604L14.7167 3.35097C15.0927 3.21692 15.0927 2.66981 14.7167 2.53577L14.7193 2.53303Z" fill="#00C97D"/>
</g>
<defs>
<clipPath id="clip0_69_118">
<rect width="15" height="9" fill="white"/>
</clipPath>
</defs>
</svg>
