<svg width="131" height="129" viewBox="0 0 131 129" fill="none" xmlns="http://www.w3.org/2000/svg">
<g clip-path="url(#clip0_416_275)">
<path d="M54.3 120.23C51.43 115.13 56.26 100.58 42.75 80.71C35.62 70.21 27.34 69.67 25.14 59.66C22.27 46.63 33.52 34.97 35.53 32.89C47.04 20.97 68.73 17.68 81.72 24.57C93.98 31.07 86.44 39.65 100.2 60.7C114.03 81.86 122.45 88.86 124.36 92.91C131.95 108.97 102.11 120.19 99.53 121.2C96.21 122.51 62.68 135.12 54.3 120.24V120.23Z" fill="#6266FA" stroke="#6266FA" stroke-width="2" stroke-linejoin="round"/>
<path d="M24.67 82.87C37.7426 82.87 48.34 72.2726 48.34 59.2C48.34 46.1274 37.7426 35.53 24.67 35.53C11.5974 35.53 1 46.1274 1 59.2C1 72.2726 11.5974 82.87 24.67 82.87Z" fill="#6266FA" stroke="#6266FA" stroke-width="2" stroke-linejoin="round"/>
<path d="M52.29 63.16C69.455 63.16 83.37 49.245 83.37 32.08C83.37 14.915 69.455 1 52.29 1C35.125 1 21.21 14.915 21.21 32.08C21.21 49.245 35.125 63.16 52.29 63.16Z" fill="#6266FA" stroke="#6266FA" stroke-width="2" stroke-linejoin="round"/>
<path d="M90.79 55.75C103.863 55.75 114.46 45.1526 114.46 32.08C114.46 19.0074 103.863 8.41 90.79 8.41C77.7174 8.41 67.12 19.0074 67.12 32.08C67.12 45.1526 77.7174 55.75 90.79 55.75Z" fill="#6266FA" stroke="#6266FA" stroke-width="2" stroke-linejoin="round"/>
<path d="M76.49 10.88L79.95 16.08L78.58 6.84L76.49 10.88Z" fill="white"/>
<path d="M44.47 60.21L45.51 58.43C47.72 54.64 51.01 51.58 54.98 49.7C58.95 47.82 63.58 46.29 66.68 45.9L70.88 45.36C77.18 44.55 83.58 44.92 89.75 46.45C89.75 46.45 80.97 45.36 65.43 49.21C61.65 50.15 55.7 52.2 50.65 54.95C49.34 55.66 48.15 56.58 47.09 57.63L44.47 60.22V60.21Z" fill="white"/>
<path d="M20.12 33.99L21.54 38.67L16.73 34.92L20.12 33.99Z" fill="white"/>
<path d="M93.42 90.56C96.14 90.05 98.94 90.09 101.65 90.69L102.99 90.99L81.5 58.13L93.43 90.56H93.42Z" fill="white"/>
<path d="M111.49 93.77L112.02 93.88C114.54 94.38 117 95.18 119.33 96.26L120.5 96.8L93.08 59.2L111.48 93.77H111.49Z" fill="white"/>
<path d="M76.73 91.64L77.17 93.86C80.51 90.48 87.24 90.52 87.24 90.52L68.73 58.47L76.73 91.64Z" fill="white"/>
<path d="M53.02 122.46C52.86 122.66 27.25 120.56 24.51 111.24C19.16 93.05 119.09 80.79 124.69 41.66C126.26 30.68 121.75 33.25 122.53 33.05C123.45 32.81 130.18 34.85 129.31 48.01C127.29 78.6 72.37 91.86 45.94 98.47C41.03 99.7 27.2 102.51 31.07 112.76C34.53 121.93 53.16 122.27 53.01 122.46H53.02Z" fill="white"/>
<path d="M57.86 117.03C57.7 117.23 27.26 114.86 24.52 105.55C19.17 87.36 119.1 75.1 124.7 35.97C126.27 24.99 111.62 23.78 112.4 23.58C113.32 23.34 130.19 29.16 129.32 42.32C127.3 72.91 72.38 86.17 45.95 92.78C41.04 94.01 27.21 96.82 31.08 107.07C34.54 116.24 58.01 116.85 57.86 117.03Z" fill="#6266FA" stroke="#6266FA" stroke-width="2" stroke-linejoin="round"/>
</g>
<defs>
<clipPath id="clip0_416_275">
<rect width="130.35" height="128.43" fill="white"/>
</clipPath>
</defs>
</svg>
