<svg width="1665" height="463" viewBox="0 0 1665 463" fill="none" xmlns="http://www.w3.org/2000/svg">
<path d="M0 -29H832H1665V463H0V-29Z" fill="#DCDFFF"/>
<path d="M64.5 232L0 278.5V460.5H1664.5V274L1636.5 240.5L1569.5 297.5L1396 333.5L1318 313.5L1232 348L1173 357.5H1119L980.5 307L901 321.5L816 297.5L693 348L619.5 321.5L575.5 333.5C537.167 338.333 459.6 348 456 348C452.4 348 375.5 338.333 337.5 333.5L228 278.5L131.5 307L64.5 232Z" fill="#6266FA"/>
<path d="M21.5 247.5L0 321.5V460.5H1664.5V252.5L1612 327L1500.5 287.5L1453 341L1377 373L1311 362L1246.5 411C1185 416.667 1061.2 428 1058 428C1054 428 780.5 406 774.5 406C769.7 406 671.5 384 623 373L488.5 330.5L429.5 358.5L357 366L161.5 330.5L93 308L21.5 247.5Z" fill="#150080"/>
</svg>