<svg width="1665" height="229" viewBox="0 0 1665 229" fill="none" xmlns="http://www.w3.org/2000/svg">
<path d="M64.5 0L0 46.5V228.5H1664.5V42L1636.5 8.5L1569.5 65.5L1396 101.5L1318 81.5L1232 116L1173 125.5H1119L980.5 75L901 89.5L816 65.5L693 116L619.5 89.5L575.5 101.5C537.167 106.333 459.6 116 456 116C452.4 116 375.5 106.333 337.5 101.5L228 46.5L131.5 75L64.5 0Z" fill="#DCDFFF"/>
<path d="M21.5 15.5L0 89.5V228.5H1664.5V20.5L1612 95L1500.5 55.5L1453 109L1377 141L1311 130L1246.5 179C1185 184.667 1061.2 196 1058 196C1054 196 780.5 174 774.5 174C769.7 174 671.5 152 623 141L488.5 98.5L429.5 126.5L357 134L161.5 98.5L93 76L21.5 15.5Z" fill="#6266FA"/>
</svg>
