<svg width="1694" height="306" viewBox="0 0 1694 306" fill="none" xmlns="http://www.w3.org/2000/svg">
<path d="M77.5 0L0 46.5V305H1694V56L1649.5 8.5L1582.5 65.5L1409 101.5L1331 81.5L1245 116L1186 125.5H1132L993.5 75L914 89.5L829 65.5L706 116L632.5 89.5L588.5 101.5C550.167 106.333 472.6 116 469 116C465.4 116 388.5 106.333 350.5 101.5L241 46.5L144.5 75L77.5 0Z" fill="#DCDFFF"/>
<path d="M34.5 15.5L5.5 88.5V305.5H1692V1.5L1625 95L1513.5 55.5L1466 109L1390 141L1324 130L1259.5 179C1198 184.667 1074.2 196 1071 196C1067 196 793.5 174 787.5 174C782.7 174 684.5 152 636 141L501.5 98.5L442.5 126.5L370 134L174.5 98.5L106 76L34.5 15.5Z" fill="#6266FA"/>
</svg>
