<svg width="285" height="37" viewBox="0 0 285 37" fill="none" xmlns="http://www.w3.org/2000/svg">
<g clip-path="url(#clip0_9_633)">
<path d="M14.8407 30.1781C13.4409 30.1781 11.9458 29.448 11.9458 26.7414V17.0655H15.8227C17.2812 17.0655 18.4611 15.8781 18.4611 14.4105V10.8189H11.9971V8.94569C11.9971 6.01047 9.63729 3.63574 6.72045 3.63574H4.55115V10.8189H0V17.0655H4.55115V26.7414C4.55115 34.7579 8.74319 37.199 14.2691 36.9409C16.2845 36.8377 17.7868 36.5279 19.6483 35.7978L17.9408 29.5512C17.1126 29.9642 15.7201 30.1781 14.8407 30.1781Z" fill="#2C31ED"/>
<path d="M42.1256 13.6363C40.7844 11.35 37.7796 10.0963 34.577 10.0963C27.0284 9.99305 21.1874 14.9859 21.1874 23.5187C21.1874 32.0515 26.7206 36.9927 34.3718 36.941C36.8562 36.8894 40.5279 35.8495 42.2282 33.1429L42.3454 34.0574C42.514 35.3849 43.6353 36.3732 44.9618 36.3732H49.3664V10.6642H45.3429C43.6719 10.6642 42.2722 11.9548 42.1256 13.6289V13.6363ZM35.3538 30.2888C31.6308 30.2888 28.6334 27.7887 28.6334 23.526C28.6334 19.2633 31.6308 16.7116 35.3538 16.7116C39.8024 16.7116 42.1256 20.0967 42.1256 23.7915C42.1256 27.0144 39.5385 30.2962 35.3538 30.2962V30.2888Z" fill="#2C31ED"/>
<path d="M57.1569 0H53.793L52.4152 6.24656H55.0315V33.7182C55.0315 35.1858 56.2115 36.3731 57.6699 36.3731H62.4262V5.30995C62.4262 2.37473 60.0664 0 57.1495 0H57.1569Z" fill="#2C31ED"/>
<path d="M80.2131 9.99292C71.8876 9.99292 66.6622 15.4577 66.6622 23.2604C66.6622 31.4835 71.7337 36.9483 80.9826 36.9483C84.8082 36.9483 89.2054 35.8568 91.9464 33.1502L87.7543 28.4671C85.9441 30.0306 83.1519 30.4952 81.1365 30.4952C76.9518 30.4952 74.5699 28.4671 74.2108 25.967H92.9797C94.5847 15.4577 88.8976 9.99292 80.2057 9.99292H80.2131ZM74.2182 20.5022C74.9437 17.9505 77.2156 16.3944 80.2131 16.3944C83.2105 16.3944 86.1567 17.6923 86.3179 20.5022H74.2182Z" fill="#2C31ED"/>
<path d="M113.2 10.0446C110.1 9.99301 107.205 10.9812 104.926 13.946C104.779 12.0949 103.247 10.6715 101.4 10.6715H97.9486V33.7255C97.9486 35.1931 99.1285 36.3805 100.587 36.3805H105.292V23.113C105.292 19.7795 107.615 16.7632 111.082 16.8148C114.651 16.8148 116.358 18.8429 116.358 22.7959V33.7255C116.358 35.1931 117.538 36.3805 118.997 36.3805H123.856V22.7443C123.856 12.7512 118.945 10.0446 113.207 10.0446H113.2Z" fill="#2C31ED"/>
<path d="M145.879 29.5588C145.05 29.9718 143.658 30.1857 142.779 30.1857C141.386 30.1857 139.884 29.4556 139.884 26.749V17.073H146.399V10.8265H139.935V3.64331H137.766C134.849 3.64331 132.489 6.01804 132.489 8.95326V10.8265H127.938V14.4181C127.938 15.8857 129.118 17.073 130.576 17.073H132.489V26.749C132.489 34.7655 136.674 37.2066 142.207 36.9485C144.222 36.8452 145.725 36.5355 147.586 35.8054L145.879 29.5588Z" fill="#2C31ED"/>
<path d="M162.324 8.99012V10.8634H168.788V14.4549C168.788 15.9226 167.608 17.1099 166.15 17.1099H162.273V26.7858C162.273 29.4924 163.775 30.2225 165.168 30.2225C166.047 30.2225 167.44 30.016 168.268 29.5957L169.975 35.8422C168.114 36.5723 166.612 36.8821 164.596 36.9853C159.063 37.2435 154.878 34.8024 154.878 26.7858V17.1099H150.327V10.8634H154.878V3.68018H157.048C159.964 3.68018 162.324 6.0549 162.324 8.99012Z" fill="#150080"/>
<path d="M181.357 13.5624C183.065 11.1656 185.336 10.1257 188.18 10.1257C190.613 10.1257 192.629 10.8559 194.439 12.4636L191.339 18.393C190.1 17.508 188.803 17.095 187.257 17.095C184.047 17.095 181.313 19.1748 181.313 23.0245V33.7402C181.313 35.2079 180.133 36.3952 178.675 36.3952H173.867V10.7526H177.949C179.605 10.7526 181.035 11.9252 181.364 13.5624H181.357Z" fill="#150080"/>
<path d="M218.638 10.701H222.662V33.755C222.662 35.2226 221.482 36.41 220.023 36.41H215.941L215.531 33.1798C213.823 35.8864 210.152 36.9263 207.674 36.9779C200.023 37.0295 194.49 32.0367 194.49 23.5555C194.49 15.0743 200.331 10.0299 207.88 10.1331C211.09 10.1331 214.087 11.3795 215.428 13.6731C215.575 11.9916 216.975 10.7084 218.646 10.7084L218.638 10.701ZM201.921 23.5555C201.921 27.8256 204.919 30.3183 208.642 30.3183C212.827 30.3183 215.414 27.0365 215.414 23.8136C215.414 20.1188 213.09 16.7337 208.642 16.7337C204.919 16.7337 201.921 19.2854 201.921 23.5481V23.5555Z" fill="#150080"/>
<path d="M254.285 0.0368652V33.755C254.285 35.2226 253.105 36.41 251.647 36.41H247.616L247.147 33.1282C244.765 36.1961 241.87 36.8746 238.668 36.8746C231.17 36.8746 226.048 31.5647 226.048 23.5555C226.048 15.5463 231.273 10.1848 238.77 10.1848C241.768 10.1848 244.611 11.1214 246.788 13.828V5.34681C246.788 2.41159 249.148 0.0368652 252.065 0.0368652H254.285ZM233.552 23.5555C233.552 27.2503 235.824 30.1634 239.811 30.1634C243.175 30.1634 246.685 28.4451 246.685 23.5555C246.685 19.2338 243.219 16.9476 239.811 16.9476C235.985 16.9476 233.552 19.7058 233.552 23.5555Z" fill="#150080"/>
<path d="M265.96 26.0039C266.319 28.504 268.701 30.5321 272.886 30.5321C274.901 30.5321 277.693 30.0601 279.503 28.504L283.695 33.1871C280.955 35.8936 276.557 36.9851 272.732 36.9851C263.476 36.9851 258.411 31.5203 258.411 23.2973C258.411 15.0742 263.637 10.0298 271.962 10.0298C280.288 10.0298 286.334 15.4946 284.736 26.0039H265.967H265.96ZM278.06 20.5391C277.906 17.7292 275.062 16.4312 271.955 16.4312C268.847 16.4312 266.678 17.9947 265.96 20.5391H278.06Z" fill="#150080"/>
</g>
<defs>
<clipPath id="clip0_9_633">
<rect width="285" height="37" fill="white"/>
</clipPath>
</defs>
</svg>
