<svg width="128" height="120" viewBox="0 0 128 120" fill="none" xmlns="http://www.w3.org/2000/svg">
<g clip-path="url(#clip0_416_257)">
<path d="M118.81 71.65L82.91 52.76L101.8 16.86L71.65 1L52.76 36.9L16.86 18.01L1 48.16L36.9 67.05L18.01 102.94L48.16 118.81L67.05 82.91L102.94 101.8L118.81 71.65Z" fill="#6266FA" stroke="#6266FA" stroke-width="2" stroke-linejoin="round"/>
<path d="M16.83 75.45C15.94 74.93 6.24003 84.14 8.10003 89.75C11.24 99.24 48.3 100.91 78.42 87.57C108.69 74.17 131.45 45.84 126.91 38.67C122.75 32.11 98.67 40.59 98.63 40.42C98.6 40.27 114.95 34.91 117.57 39.33C120.62 44.48 100.2 65.24 76.11 77.23C49.7 90.37 17.69 93.59 14.09 85.75C12.33 81.92 17.52 75.85 16.83 75.44V75.45Z" fill="white"/>
<path d="M14.57 69.64C13.68 69.12 3.98002 78.33 5.84002 83.94C8.98002 93.43 46.04 95.1 76.16 81.76C106.43 68.36 129.19 40.03 124.65 32.86C120.49 26.3 93 36.71 92.96 36.54C92.93 36.39 112.69 29.09 115.31 33.51C118.36 38.66 97.94 59.42 73.85 71.41C47.44 84.55 15.43 87.77 11.83 79.93C10.07 76.1 15.26 70.03 14.57 69.62V69.64Z" fill="#6266FA" stroke="#6266FA" stroke-linejoin="round"/>
</g>
<defs>
<clipPath id="clip0_416_257">
<rect width="127.49" height="119.81" fill="white"/>
</clipPath>
</defs>
</svg>
