<svg width="49" height="49" viewBox="0 0 49 49" fill="none" xmlns="http://www.w3.org/2000/svg">
<g clip-path="url(#clip0_370_172)">
<path d="M0 0V49H49V0H0ZM45.0277 25.3763V32.3395C45.0277 34.6528 43.3686 36.2418 41.7797 35.4473L36.7091 32.8536V34.2089C36.7091 37.2232 34.279 39.6533 31.2647 39.6533H9.34669C6.33238 39.6533 3.90224 37.2232 3.90224 34.2089V16.5436C3.90224 13.5293 6.33238 11.0992 9.34669 11.0992H31.288C34.3023 11.0992 36.7325 13.5293 36.7325 16.5436V17.8989L41.8031 15.3052C43.3686 14.5107 45.051 16.0997 45.051 18.413V25.3763H45.0277Z" fill="white"/>
</g>
<defs>
<clipPath id="clip0_370_172">
<rect width="49" height="49" fill="white"/>
</clipPath>
</defs>
</svg>
