<svg width="134" height="127" viewBox="0 0 134 127" fill="none" xmlns="http://www.w3.org/2000/svg">
<g clip-path="url(#clip0_416_262)">
<path d="M116.64 21.17L30.97 1V83.64C28.17 82.71 25 82.18 21.64 82.18C10.24 82.18 1 88.2 1 95.63C1 103.06 10.24 109.08 21.64 109.08C33.04 109.08 42.28 103.06 42.28 95.63V28.49L105.18 43.3V99.59C102.38 98.66 99.21 98.13 95.85 98.13C84.45 98.13 75.21 104.15 75.21 111.58C75.21 119.01 84.45 125.03 95.85 125.03C107.25 125.03 116.49 119.01 116.49 111.58V45.96L116.65 46V21.17H116.64Z" fill="#6266FA" stroke="#6266FA" stroke-width="2" stroke-linejoin="round"/>
<path d="M83.03 74.26C76.82 71.94 69.54 69.19 60.78 65.76C60.78 65.76 31.99 56.89 20.08 37.08C19.01 35.29 17.29 28.6 18.93 26.45C21.37 23.26 27.52 26.85 27.71 26.3C27.94 25.65 18.29 18.37 14.22 22.09C9.72999 26.18 16.46 46.48 31 57.96C47.29 70.81 65.32 74.91 83.02 80.4V74.28L83.03 74.26Z" fill="white"/>
<path d="M31.93 21.32C32.16 20.67 18.3 12.32 14.23 16.03C9.74 20.12 16.47 40.42 31.01 51.9C58.26 73.4 90.39 70.39 117.69 90.41C122.29 93.78 126.95 98.19 126.31 102.6C125.34 109.27 112.8 111.95 113.09 112.72C113.41 113.56 129.19 112.62 132.86 103.41C136.01 95.5 124.3 88.02 121.25 85.82C108.13 76.36 97.05 73.95 60.78 59.72C60.78 59.72 31.99 50.85 20.08 31.04C19.01 29.25 17.29 22.56 18.93 20.41C21.37 17.22 31.73 21.88 31.92 21.33L31.93 21.32Z" fill="#6266FA" stroke="#6266FA" stroke-linejoin="round"/>
</g>
<defs>
<clipPath id="clip0_416_262">
<rect width="133.9" height="126.03" fill="white"/>
</clipPath>
</defs>
</svg>
