<svg width="7" height="11" viewBox="0 0 7 11" fill="none" xmlns="http://www.w3.org/2000/svg">
<g clip-path="url(#clip0_69_78)">
<path d="M7 3.58836C7 1.60625 5.43331 0 3.5 0C1.56669 0 0 1.60625 0 3.58836C0 4.06701 0.0945172 4.52216 0.260638 4.94207C0.260638 4.94207 0.309329 5.05659 0.329378 5.10064L2.7725 10.5243C3.05892 11.1586 3.94108 11.1586 4.2275 10.5243L6.66776 5.10945C6.69067 5.05953 6.71358 5.01255 6.73363 4.96263L6.74223 4.94207C6.90835 4.52509 7 4.06994 7 3.5913V3.58836ZM3.5 5.91991C2.24264 5.91991 1.22586 4.87453 1.22586 3.58836C1.22586 2.30219 2.2455 1.25681 3.5 1.25681C4.75736 1.25681 5.77414 2.30219 5.77414 3.58836C5.77414 4.87453 4.7545 5.91991 3.5 5.91991Z" fill="#2C31ED"/>
</g>
<defs>
<clipPath id="clip0_69_78">
<rect width="7" height="11" fill="white"/>
</clipPath>
</defs>
</svg>
