<svg width="151" height="120" viewBox="0 0 151 120" fill="none" xmlns="http://www.w3.org/2000/svg">
<g clip-path="url(#clip0_416_289)">
<path d="M55.57 118.83C56.72 117.01 84.29 4.34 84.29 4.34L94.97 1L70.14 115.99L55.57 118.83Z" fill="#6266FA" stroke="#6266FA" stroke-width="2" stroke-linejoin="round"/>
<path d="M48.64 34.02L1 64.61L3.6 72.74L55.57 88.41L52.1 77.94L15.72 66.49L49.79 42.72L48.64 34.02Z" fill="#6266FA" stroke="#6266FA" stroke-width="2" stroke-linejoin="round"/>
<path d="M85.94 88.61L82.41 101.17L97.75 94.2L148.95 62L146.36 53.86L94.39 38.2L104.71 47.12L134.23 60.12L100.16 83.89L85.94 88.61Z" fill="white" stroke="white" stroke-width="2" stroke-linejoin="round"/>
<path d="M101.9 87.11L149.53 56.52L146.93 48.39L94.97 32.73L98.43 43.19L134.81 54.64L100.74 78.41L101.9 87.11Z" fill="#6266FA" stroke="#6266FA" stroke-width="2" stroke-linejoin="round"/>
<path d="M64.06 58.5C64.13 58.28 71.95 35.49 71.95 35.49L74.4 37.22L68.69 60.39L64.06 58.49V58.5Z" fill="white"/>
<path d="M36.39 87.18C35.37 87.06 30.2 99.4 34.16 103.79C40.85 111.21 75.45 97.81 97.65 73.46C119.96 49 129.37 13.9 122.33 9.17C115.88 4.84 97.26 22.3 97.15 22.16C97.06 22.04 109.87 10.54 114.04 13.53C118.91 17.02 108.58 44.24 91.36 64.92C72.49 87.59 44.49 103.43 38.03 97.71C34.88 94.92 37.18 87.27 36.38 87.17L36.39 87.18Z" fill="white"/>
<path d="M31.99 82.77C30.97 82.65 25.8 94.99 29.76 99.38C36.45 106.8 71.05 93.4 93.25 69.05C115.56 44.59 124.97 9.48999 117.93 4.75999C111.48 0.429991 90.51 21.04 90.41 20.9C90.32 20.78 105.47 6.12999 109.65 9.11999C114.52 12.61 104.19 39.83 86.97 60.51C68.1 83.18 40.1 99.02 33.64 93.3C30.49 90.51 32.79 82.86 31.99 82.76V82.77Z" fill="#6266FA" stroke="#6266FA" stroke-linejoin="round"/>
</g>
<defs>
<clipPath id="clip0_416_289">
<rect width="150.53" height="119.83" fill="white"/>
</clipPath>
</defs>
</svg>
