<svg width="21" height="21" viewBox="0 0 21 21" fill="none" xmlns="http://www.w3.org/2000/svg">
<g clip-path="url(#clip0_299_193)">
<path d="M10.5505 6.9458C9.56011 6.9458 8.72132 7.29106 8.03412 7.98158C7.35703 8.67211 7.01343 9.51495 7.01343 10.5C7.01343 11.485 7.35703 12.3177 8.03412 13.0082C8.72132 13.6987 9.55 14.0541 10.5505 14.0541C11.551 14.0541 12.3594 13.7089 13.0466 13.0082C13.7338 12.3075 14.0875 11.4748 14.0875 10.5C14.0875 9.5251 13.7439 8.68226 13.0466 7.98158C12.3493 7.28091 11.5206 6.9458 10.5505 6.9458Z" fill="white"/>
<path d="M0 0V21H21V0H0ZM18.0794 10.1547V10.8351C18.0794 10.9468 18.0592 11.0585 18.0289 11.1804L20.6564 13.1605L17.847 17.984L14.8657 16.7147C14.6838 16.8467 14.4817 16.9787 14.2796 17.1006C14.0775 17.2224 13.8754 17.324 13.6732 17.4052L13.269 20.6547H7.71078L7.30654 17.4052C7.08422 17.324 6.8821 17.2224 6.69009 17.1006C6.49807 16.9787 6.30606 16.8569 6.12416 16.7147L3.12271 17.984L0.3436 13.1605L2.95091 11.1804C2.9307 11.0585 2.9206 10.9468 2.9206 10.8351V10.1547C2.9206 10.043 2.9206 9.93133 2.95091 9.80948L0.3436 7.8293L3.12271 3.0058L6.12416 4.27514C6.30606 4.14313 6.50818 4.01112 6.7103 3.88926C6.91242 3.76741 7.11453 3.66586 7.31665 3.58462L7.72089 0.335106H13.2791L13.6833 3.58462C13.9057 3.66586 14.1078 3.76741 14.2998 3.88926C14.4918 4.01112 14.6838 4.13298 14.8657 4.27514L17.8672 3.0058L20.6463 7.8293L18.039 9.80948C18.0592 9.93133 18.0693 10.043 18.0693 10.1547H18.0794Z" fill="white"/>
</g>
<defs>
<clipPath id="clip0_299_193">
<rect width="21" height="21" fill="white"/>
</clipPath>
</defs>
</svg>
