<svg width="49" height="49" viewBox="0 0 49 49" fill="none" xmlns="http://www.w3.org/2000/svg">
<g clip-path="url(#clip0_376_175)">
<path d="M0 0V49H49V0H0ZM17.05 36.74L14.12 39.67C13.96 39.83 13.77 39.94 13.55 40L10.74 40.74C9.87 40.97 9.11 40.21 9.34 39.34L10.08 36.53C10.14 36.32 10.25 36.12 10.41 35.96L13.34 33.03C13.81 32.56 14.56 32.54 15.02 32.99L17.09 35.06C17.54 35.51 17.53 36.26 17.05 36.74ZM41.67 25.87L41.3 26.24C40.17 27.37 38.33 27.37 37.19 26.24L37.13 26.18L30.5 32.81L29.2 39.34C28.82 41.28 26.43 42 25.03 40.6L23.87 39.44L10.37 25.94L9.47 25.04C8.11 23.68 8.76 21.36 10.62 20.9L17 19.31L23.63 12.68L23.57 12.62C22.44 11.49 22.44 9.65 23.57 8.51L23.94 8.14C24.58 7.5 25.62 7.5 26.26 8.14L27.22 9.1L40.72 22.6L41.68 23.56C42.32 24.2 42.32 25.24 41.68 25.88L41.67 25.87Z" fill="white"/>
</g>
<defs>
<clipPath id="clip0_376_175">
<rect width="49" height="49" fill="white"/>
</clipPath>
</defs>
</svg>
