<svg width="47" height="47" viewBox="0 0 47 47" fill="none" xmlns="http://www.w3.org/2000/svg">
<g clip-path="url(#clip0_9_464)">
<path d="M47 23.5C47 10.5213 36.4787 0 23.5 0C10.5213 0 0 10.5213 0 23.5C0 36.4787 10.5213 47 23.5 47C36.4787 47 47 36.4787 47 23.5Z" fill="#DCDFFF"/>
<path d="M32.2356 17.4769C32.2356 12.654 28.3259 8.74432 23.503 8.74432C18.6802 8.74432 14.7705 12.654 14.7705 17.4769C14.7705 22.2997 18.6802 26.2094 23.503 26.2094C28.3259 26.2094 32.2356 22.2997 32.2356 17.4769Z" fill="#6266FA"/>
<path d="M23.503 29.4878C16.1089 29.4878 9.51679 32.9077 5.20654 38.2439C9.51679 43.5801 16.1089 47 23.503 47C30.897 47 37.4892 43.5801 41.7994 38.2439C37.4892 32.9077 30.897 29.4878 23.503 29.4878Z" fill="#6266FA"/>
</g>
<defs>
<clipPath id="clip0_9_464">
<rect width="47" height="47" fill="white"/>
</clipPath>
</defs>
</svg>
